<?xml version="1.0" encoding="UTF-8"?>
<svg version="1.1" xmlns="http://www.w3.org/2000/svg" width="740" height="740">
<path d="M0 0 C244.2 0 488.4 0 740 0 C740 244.2 740 488.4 740 740 C495.8 740 251.6 740 0 740 C0 495.8 0 251.6 0 0 Z " fill="#FEFEFE" transform="translate(0,0)"/>
<path d="M0 0 C20.57525025 -0.25720031 41.1502347 -0.45105315 61.72676754 -0.56993389 C71.28136435 -0.62660521 80.83496118 -0.70383566 90.38891602 -0.82983398 C98.71827213 -0.93962964 107.046904 -1.01047619 115.37696368 -1.03497344 C119.78631404 -1.04928993 124.19359291 -1.08281759 128.60227776 -1.16303062 C132.7570191 -1.238007 136.90884773 -1.26067019 141.06420135 -1.24418449 C142.58444908 -1.24719749 144.10479957 -1.26890769 145.62446022 -1.31126022 C157.06680984 -1.61436735 157.06680984 -1.61436735 161.84391975 2.37489891 C164.14343464 5.15065602 166.09215821 7.94574752 168 11 C169.11397448 12.50658936 170.23788565 14.00597666 171.37890625 15.4921875 C172.44260113 16.95130799 173.50374213 18.4122932 174.5625 19.875 C179.62819079 26.81315735 184.77627052 33.68007841 190 40.5 C195.79665197 48.07179361 201.49588539 55.70716362 207.1328125 63.3984375 C211.14000827 68.8577822 215.23990312 74.2308555 219.390625 79.58203125 C222.5821887 83.73081511 225.6586245 87.96389232 228.75 92.1875 C234.09723919 99.48890407 239.58641582 106.66281749 245.16650391 113.78735352 C248.87061652 118.52423273 252.46853468 123.3185293 255.9765625 128.203125 C263.09342107 138.0403272 270.50296803 147.6662966 277.875 157.3125 C284.90102882 166.50804631 291.79773389 175.79346495 298.62817383 185.13500977 C299.08087646 185.75045654 299.5335791 186.36590332 300 187 C300.51135498 187.73855225 301.02270996 188.47710449 301.54956055 189.23803711 C302.02820557 189.81948486 302.50685059 190.40093262 303 191 C303.66 191 304.32 191 305 191 C306.36513946 189.52193 306.36513946 189.52193 307.73046875 187.546875 C308.27832031 186.79277344 308.82617188 186.03867187 309.390625 185.26171875 C310.28007813 184.01841797 310.28007813 184.01841797 311.1875 182.75 C312.46135321 180.99414827 313.73612219 179.23896063 315.01171875 177.484375 C316.00051025 176.12022461 316.00051025 176.12022461 317.00927734 174.72851562 C320.12898357 170.45259745 323.31405081 166.22665922 326.5 162 C331.47807828 155.38346048 336.41318344 148.73755139 341.3125 142.0625 C345.92731349 135.77698141 350.62077521 129.56896748 355.3984375 123.40625 C358.54115574 119.32047133 361.57805853 115.15738236 364.625 111 C369.67674971 104.10923615 374.80654157 97.28455776 380 90.5 C385.74502815 82.99274841 391.4028068 75.42858819 396.99658203 67.80810547 C405.97306422 55.57953404 415.13773428 43.4987351 424.34570312 31.44384766 C427.7375632 26.99592294 431.10312093 22.53691733 434.375 18 C435.23230713 16.88890869 435.23230713 16.88890869 436.10693359 15.75537109 C438.12006865 13.01880846 438.12006865 13.01880846 439.41210938 9.6965332 C441.68450688 5.34673446 443.61082571 2.35220943 448 0 C457.68953997 -2.13699902 468.03284201 -1.28371538 477.89105225 -0.89263916 C481.62433216 -0.75871395 485.35875141 -0.70008544 489.09375 -0.63476562 C496.39896132 -0.49607798 503.69850502 -0.27478745 511 0 C508.40829744 4.60569969 505.78410108 8.77216513 502.5 12.9375 C501.61104697 14.07479281 500.72306949 15.21284865 499.8359375 16.3515625 C499.3728418 16.94485352 498.90974609 17.53814453 498.43261719 18.14941406 C495.96028745 21.34305063 493.54335515 24.57791058 491.125 27.8125 C490.37186523 28.8188147 490.37186523 28.8188147 489.60351562 29.84545898 C488.5795078 31.21400957 487.55574564 32.58274401 486.53222656 33.95166016 C484.02484372 37.30362671 481.51212796 40.65158923 479 44 C478.25556641 44.99290039 478.25556641 44.99290039 477.49609375 46.00585938 C475.02332034 49.30396105 472.54876245 52.60069279 470.0703125 55.89453125 C464.6928925 63.04565054 459.35703989 70.22476479 454.0625 77.4375 C449.08720869 84.21287272 444.02846718 90.91590252 438.90136719 97.5769043 C434.18584653 103.718963 429.59813798 109.95085104 425.01953125 116.1953125 C421.73119469 120.67273504 418.40400901 125.1098869 415 129.5 C411.04072797 134.60707402 407.19494977 139.78803463 403.375 145 C397.61293949 152.85771511 391.74238394 160.62653594 385.82617188 168.36865234 C376.93393855 180.00574818 368.17316824 191.73349115 359.52026367 203.54956055 C356.26074803 207.98493463 352.95393395 212.3776624 349.58984375 216.734375 C348.85668945 217.68546143 348.12353516 218.63654785 347.36816406 219.61645508 C345.93964267 221.46448069 344.50558928 223.30824633 343.06542969 225.1472168 C342.41864258 225.98422119 341.77185547 226.82122559 341.10546875 227.68359375 C340.52949951 228.42150146 339.95353027 229.15940918 339.36010742 229.91967773 C337.95447406 232.0696332 337.19329213 233.43816743 337 236 C337.93690151 238.02163902 337.93690151 238.02163902 339.5078125 239.94921875 C340.07580566 240.70614014 340.64379883 241.46306152 341.22900391 242.24291992 C341.85468262 243.04963135 342.48036133 243.85634277 343.125 244.6875 C343.76228027 245.52966064 344.39956055 246.37182129 345.05615234 247.23950195 C347.02527708 249.83587446 349.01126921 252.41862743 351 255 C352.1363252 256.48889038 353.27179217 257.97843629 354.40625 259.46875 C356.5435681 262.27281352 358.68742287 265.0716956 360.8359375 267.8671875 C365.49176333 273.93439122 370.06626822 280.0625527 374.64501953 286.18798828 C376.65621455 288.87755394 378.67191731 291.56372081 380.6875 294.25 C397.5859375 316.78125001 397.5859375 316.78125001 399.52075195 319.36108398 C400.84470387 321.12629877 402.16876056 322.89143497 403.49291992 324.65649414 C408.95475022 331.93733771 408.95475022 331.93733771 411.40234375 335.21484375 C414.78217851 339.73642692 418.18107156 344.24163836 421.609375 348.7265625 C428.72607551 358.03702217 435.78495099 367.38003947 442.7097168 376.83422852 C447.72944697 383.67119039 452.87035753 390.41162637 458.02587891 397.14648438 C463.13896013 403.83825888 468.14942252 410.59997458 473.12841797 417.3918457 C477.17830104 422.90822622 481.312668 428.34843112 485.50390625 433.7578125 C489.93721781 439.49377788 494.25603154 445.31738105 498.59667969 451.12353516 C500.62409019 453.83450891 502.65579655 456.54224191 504.6875 459.25 C514.12890625 471.83854167 523.5703125 484.42708333 533.01171875 497.015625 C533.50551025 497.67393311 533.99930176 498.33224121 534.50805664 499.01049805 C535.50104509 500.33464514 536.49372196 501.65902595 537.48608398 502.98364258 C540.05369437 506.41006711 542.6273056 509.83172963 545.2109375 513.24609375 C545.74074219 513.94798828 546.27054688 514.64988281 546.81640625 515.37304688 C547.81436424 516.69490351 548.81419151 518.01535224 549.81640625 519.33398438 C552.38012722 522.73432578 554.82061934 526.18886388 557.17431641 529.73852539 C557.70602448 530.53940079 558.23773254 531.34027618 558.78555298 532.16542053 C559.1863205 532.77083176 559.58708801 533.37624298 560 534 C539.34646835 534.35102851 518.69343115 534.61521535 498.03751755 534.77718258 C488.44554444 534.85440086 478.85542882 534.95958844 469.26464844 535.1315918 C460.90119756 535.28151191 452.53909205 535.3779665 444.17433476 535.41132742 C439.74789731 535.4308199 435.32530697 535.4763155 430.90010834 535.58595085 C401.80714285 536.27933691 401.80714285 536.27933691 395.24084473 530.75198364 C392.4861377 527.73041786 390.54785738 524.53447684 388.86478424 520.82095528 C387.59049638 518.13771812 385.81890739 515.89788269 384 513.5625 C383.3709375 512.68464844 382.741875 511.80679687 382.09375 510.90234375 C379.60105479 507.44698453 377.05699673 504.03292619 374.5 500.625 C374.00274414 499.96226074 373.50548828 499.29952148 372.99316406 498.61669922 C368.60748501 492.78502717 364.17892468 486.98635388 359.75 481.1875 C355.16669005 475.1865073 350.63223344 469.16425448 346.2265625 463.03125 C343.00239841 458.64186169 339.68412418 454.32552848 336.375 450 C330.58068373 442.42261062 324.86637256 434.79378079 319.22460938 427.10229492 C313.12875819 418.79661119 306.94079236 410.56095572 300.74902344 402.32666016 C298.16306247 398.88665345 295.58152291 395.44333764 293 392 C292.02736998 390.70310533 291.05471336 389.40623061 290.08203125 388.109375 C287.87109375 385.16145833 285.66015625 382.21354167 283.44921875 379.265625 C282.52508179 378.03368408 282.52508179 378.03368408 281.58227539 376.77685547 C280.32432539 375.09926463 279.06699577 373.42120842 277.81030273 371.74267578 C274.45855518 367.26763752 271.09416795 362.80285937 267.7109375 358.3515625 C267.01653564 357.4347168 266.32213379 356.51787109 265.60668945 355.57324219 C264.265345 353.80272518 262.92024917 352.03504268 261.57104492 350.27050781 C260.67156128 349.08086426 260.67156128 349.08086426 259.75390625 347.8671875 C258.95448608 346.81700439 258.95448608 346.81700439 258.13891602 345.74560547 C257 344 257 344 257 342 C252.61288392 346.10223841 249.19127212 350.63476214 245.6875 355.5 C240.54251481 362.56680464 235.31748592 369.5620758 230 376.5 C224.9330106 383.11910041 219.92563947 389.77504018 215 396.5 C210.07435157 403.22497206 205.06645012 409.88047779 200 416.5 C194.26011115 424.000646 188.60582056 431.55703452 183.01879883 439.17211914 C177.83827068 446.23228822 172.59120856 453.2408858 167.32568359 460.23779297 C165.38086558 462.82300409 163.4404801 465.41153192 161.5 468 C124.08203125 517.890625 124.08203125 517.890625 122.69171143 519.67260742 C120.90367645 522.05335786 120.90367645 522.05335786 119.2456665 524.98510742 C113.94854969 533.36417438 113.94854969 533.36417438 108.76200867 535.05657959 C104.92035322 535.38585073 101.18197846 535.35423835 97.33984375 535.171875 C95.9403059 535.14944958 94.54067282 535.13238872 93.14100647 535.12042236 C89.48382342 535.07493076 85.83250217 534.95740423 82.1776123 534.82397461 C78.43757446 534.70046837 74.696574 534.64625646 70.95507812 534.5859375 C63.6340662 534.45782833 56.31785888 534.2534846 49 534 C50.28565135 530.67167116 51.5293179 528.02980129 53.765625 525.2421875 C54.59489502 524.19550903 54.59489502 524.19550903 55.44091797 523.12768555 C56.03791504 522.38429932 56.63491211 521.64091309 57.25 520.875 C62.2433809 514.56075188 67.12799372 508.18907178 71.875 501.6875 C76.84004519 494.89801774 81.8866614 488.17850859 87 481.5 C92.0666281 474.88061726 97.07435459 468.22496793 102 461.5 C107.5866242 453.87259983 113.29276338 446.34355435 119.0390625 438.8359375 C123.42064326 433.10097273 127.73542958 427.32240437 132 421.5 C136.92564843 414.77502794 141.93354988 408.11952221 147 401.5 C152.74497513 393.99270746 158.40280608 386.42858917 163.99658203 378.80810547 C171.50288204 368.58234843 179.1244494 358.44753653 186.82641602 348.3684082 C193.93138825 339.0703865 200.9380957 329.70889538 207.859375 320.2734375 C211.86306735 314.8162835 215.92611072 309.40487297 220 304 C221.00035964 302.66693648 222.00049518 301.33370457 223 300 C221.57628404 296.92006257 219.87083877 294.36504973 217.796875 291.68359375 C216.83201172 290.42869141 216.83201172 290.42869141 215.84765625 289.1484375 C215.15542969 288.25382812 214.46320313 287.35921875 213.75 286.4375 C208.42741151 279.50953473 203.15794955 272.55144031 198 265.5 C193.07481928 258.77469248 188.06644193 252.11951152 183 245.5 C177.25788261 237.99644184 171.60169569 230.43690993 166.01220703 222.8190918 C160.88464248 215.83155708 155.6919965 208.89464179 150.48095703 201.96923828 C147.92120817 198.56552342 145.3672761 195.15744781 142.8125 191.75 C141.80338801 190.40494597 140.79427349 189.05989384 139.78515625 187.71484375 C138.12411523 185.5003095 136.46529199 183.28419659 134.80859375 181.06640625 C130.59693118 175.43220869 126.34681208 169.82936146 122.07714844 164.23901367 C116.71871367 157.22303479 111.3792515 150.20708101 106.23046875 143.03515625 C102.98695716 138.62148111 99.64335816 134.28545256 96.3125 129.9375 C91.22955853 123.29983862 86.23333186 116.61626777 81.375 109.8125 C76.51446891 103.01045511 71.46035826 96.39033801 66.2980957 89.81518555 C61.52046999 83.71326563 56.90425565 77.50451354 52.32495117 71.25292969 C46.20477193 62.89923921 39.98588876 54.62095682 33.76220703 46.34423828 C31.60342242 43.47243864 29.44760805 40.59842152 27.29248047 37.72387695 C26.31395033 36.41879345 25.33511433 35.11393921 24.35595703 33.80932617 C21.85599581 30.47815529 19.36041715 27.14381706 16.87109375 23.8046875 C15.830969 22.41127928 14.79060759 21.01804767 13.75 19.625 C13.25314697 18.95936035 12.75629395 18.2937207 12.24438477 17.60791016 C8.72253524 12.91015192 5.08886955 8.33014844 1.328125 3.8203125 C0 2 0 2 0 0 Z " fill="#010101" transform="translate(90,103)"/>
<path d="M0 0 C8.36224593 -0.44336825 16.71947668 -0.77926025 25.09062386 -0.98443127 C28.97988094 -1.08300235 32.86102431 -1.21613194 36.74560547 -1.43334961 C61.77333166 -2.79690899 61.77333166 -2.79690899 68.76477051 1.82952881 C73.21645222 6.19529923 76.18100456 11.16664508 78.87017822 16.75363159 C80.41847392 19.83203086 82.34460625 22.31764699 84.5 25 C88.99467344 30.97053636 93.41935997 36.99185721 97.84765625 43.01171875 C101.04559134 47.35621372 104.25551648 51.69016368 107.5 56 C113.1142073 63.46139566 118.63625994 70.99066349 124.16943359 78.51220703 C127.69385588 83.30199939 131.22257349 88.088628 134.75097656 92.87548828 C137.65817836 96.82005094 140.56353037 100.76594754 143.46484375 104.71484375 C149.43743304 112.83971746 155.44087274 120.93940618 161.5 129 C168.14470604 137.83960249 174.71854559 146.72940267 181.26611328 155.64111328 C184.17371621 159.59679612 187.08710842 163.54821092 190 167.5 C193.52572937 172.28347453 197.05038927 177.06771953 200.5703125 181.85546875 C206.49652832 189.9130429 212.44738934 197.94988009 218.46142578 205.94213867 C222.9455354 211.90883763 227.36815137 217.9199963 231.7890625 223.93359375 C235.4994131 228.97607464 239.23579354 233.99761738 243 239 C247.32350116 244.74762008 251.61096228 250.5206235 255.875 256.3125 C256.46168457 257.10930176 257.04836914 257.90610352 257.65283203 258.72705078 C260.58525722 262.71210028 263.51352781 266.70015084 266.4375 270.69140625 C272.56523058 279.04542062 278.76204524 287.33778323 285.0625 295.5625 C290.51729312 302.68327623 295.83957838 309.87931603 301.05566406 317.17626953 C306.03520239 324.11348305 311.2147545 330.89171575 316.40576172 337.67138672 C320.3036657 342.76486232 324.15232027 347.88323588 327.8984375 353.08984375 C335.15574899 363.13946654 342.5484168 373.09377763 350 383 C356.12589617 391.14403069 362.16831906 399.34849999 368.20458984 407.55908203 C370.60387544 410.82098812 373.00695184 414.08009187 375.41015625 417.33911133 C377.15590449 419.70714208 378.90035526 422.07612355 380.64453125 424.4453125 C382.8670137 427.46397532 385.09399927 430.47923721 387.32421875 433.4921875 C388.34119771 434.86975337 389.35812746 436.24735557 390.375 437.625 C391.08112427 438.57584473 391.08112427 438.57584473 391.80151367 439.54589844 C395 443.88674474 395 443.88674474 395 445 C386.63762065 445.42003978 378.27974537 445.73826462 369.90937614 445.93261909 C366.02055503 446.02599175 362.1390184 446.15212273 358.25439453 446.35791016 C333.26487434 447.64748597 333.26487434 447.64748597 326.24530029 443.28997803 C321.84111069 439.22938678 318.87472029 434.55616932 316.1802063 429.24403381 C314.39990248 425.85897988 312.16526365 422.93469667 309.875 419.875 C309.07200325 418.74337328 308.27209366 417.60954366 307.4765625 416.47265625 C304.80477675 412.69926937 302.03330293 409.00405296 299.25 405.3125 C293.03158379 397.06175764 286.90201995 388.74739524 280.78222656 380.42333984 C277.8576926 376.44677489 274.92870168 372.47349592 272 368.5 C268.47428716 363.71651327 264.94961075 358.93228049 261.4296875 354.14453125 C255.98363105 346.73980537 250.52542234 339.34575634 245 332 C238.86971479 323.8501105 232.82289741 315.6397739 226.78222656 307.42333984 C223.27464562 302.65399074 219.7610183 297.88909438 216.24829102 293.12353516 C213.34134427 289.17929 210.43622871 285.23372455 207.53515625 281.28515625 C201.56256696 273.16028254 195.55912726 265.06059382 189.5 257 C182.86287222 248.17047904 176.2961322 239.29107061 169.75585938 230.38964844 C159.6797709 216.65635764 159.6797709 216.65635764 149.5 203 C143.8857927 195.53860434 138.36374006 188.00933651 132.83056641 180.48779297 C129.88914414 176.49031459 126.94449565 172.4952148 124 168.5 C120.43969329 163.66922701 116.88025716 158.83782244 113.32421875 154.00390625 C105.94767618 143.97554936 105.94767618 143.97554936 98.5 134 C92.8857927 126.53860434 87.36374006 119.00933651 81.83056641 111.48779297 C78.88914411 107.49031455 75.94445307 103.49524623 73 99.5 C71.83331667 97.91667895 70.66665002 96.3333456 69.5 94.75 C68.9225 93.96625 68.345 93.1825 67.75 92.375 C48.5 66.25 48.5 66.25 46.74975586 63.87451172 C45.58410289 62.29265867 44.4182503 60.7109527 43.25219727 59.12939453 C40.31835903 55.14960056 37.38813295 51.16723794 34.46484375 47.1796875 C28.79878372 39.45815378 23.09269452 31.77652538 17.25 24.1875 C13.16055318 18.8743806 9.14737548 13.51839927 5.25 8.0625 C4.83137695 7.47686279 4.41275391 6.89122559 3.98144531 6.2878418 C2.5272572 4.23554032 1.12669823 2.25339645 0 0 Z " fill="#FDFDFD" transform="translate(178,155)"/>
<path d="M0 0 C0.99 0 1.98 0 3 0 C4.30038741 1.93638151 5.53760431 3.91541958 6.74208069 5.91287231 C9.13957259 9.40662018 11.14059362 11.70786148 15.27303886 13.11260605 C19.25058778 13.48817401 23.14148583 13.51063665 27.12670898 13.39404297 C28.64202184 13.39393203 30.15734279 13.3990916 31.67262268 13.40908813 C35.76466486 13.42101886 39.8525418 13.35898462 43.94376254 13.28259039 C48.22944068 13.21474897 52.51515276 13.21381988 56.80128479 13.20510864 C63.98991794 13.18123935 71.17700924 13.11374597 78.36499023 13.01513672 C88.51100124 12.87604084 98.65632632 12.81758918 108.80313385 12.77433562 C116.68005548 12.73777591 124.55683524 12.67890778 132.43359375 12.6171875 C133.27935809 12.61084463 134.12512243 12.60450175 134.99651599 12.59796667 C139.84876232 12.56039103 144.70065661 12.51172453 149.55260277 12.44573593 C151.02399594 12.42706275 152.49543567 12.41172723 153.96689987 12.39990997 C155.96923982 12.38305729 157.9714512 12.35255011 159.97361755 12.32125854 C161.09573356 12.30751631 162.21784956 12.29377407 163.37396908 12.2796154 C166.15752457 12.26131793 166.15752457 12.26131793 168 10 C168.99 11.65 169.98 13.3 171 15 C150.32911568 15.32753076 129.6586611 15.57415532 108.98570538 15.72537041 C99.38598915 15.79746029 89.78788813 15.89567553 80.18920898 16.05615234 C71.81954351 16.19601461 63.4510479 16.28608785 55.08024627 16.31723893 C50.65014962 16.3354416 46.22339846 16.37797498 41.79437828 16.48022079 C37.61782305 16.57584973 33.44596153 16.60445497 29.26841545 16.58350754 C27.74245846 16.58733394 26.21633149 16.6148576 24.69132614 16.66887665 C13.49058476 17.04589694 13.49058476 17.04589694 9.25411248 13.56583643 C0 3.91942534 0 3.91942534 0 0 Z " fill="#0E0E0E" transform="translate(479,622)"/>
<path d="M0 0 C14.85 0 29.7 0 45 0 C45 0.33 45 0.66 45 1 C47.97 1.33 50.94 1.66 54 2 C54 2.33 54 2.66 54 3 C37.83 3 21.66 3 5 3 C5.33 3.99 5.66 4.98 6 6 C5.01 6.495 5.01 6.495 4 7 C0 2.25 0 2.25 0 0 Z " fill="#2A2A2A" transform="translate(90,103)"/>
<path d="M0 0 C0.66 0 1.32 0 2 0 C3.54346279 1.96776133 4.96689404 3.93779726 6.375 6 C10.72946332 12.25437161 15.24107144 18.36410077 19.88818359 24.40429688 C22.96228529 28.44780332 25.57010456 32.5375143 28 37 C27.01 37.495 27.01 37.495 26 38 C25.67427002 37.54375244 25.34854004 37.08750488 25.01293945 36.61743164 C23.44897843 34.43039596 21.88132297 32.24605088 20.3125 30.0625 C19.73540283 29.25868896 19.15830566 28.45487793 18.5637207 27.62670898 C13.84958744 21.09626102 8.97917469 14.69912645 3.96411133 8.39672852 C3.44357178 7.73084717 2.92303223 7.06496582 2.38671875 6.37890625 C1.92483154 5.7969751 1.46294434 5.21504395 0.98706055 4.61547852 C0 3 0 3 0 0 Z " fill="#121212" transform="translate(327,266)"/>
<path d="M0 0 C3.00148314 1.31686259 4.78331054 2.60895739 6.796875 5.1875 C7.52197266 6.11175781 7.52197266 6.11175781 8.26171875 7.0546875 C8.75285156 7.69664062 9.24398438 8.33859375 9.75 9 C10.25660156 9.64195312 10.76320313 10.28390625 11.28515625 10.9453125 C15 15.73155323 15 15.73155323 15 18 C15.66 18 16.32 18 17 18 C17.33 19.32 17.66 20.64 18 22 C18.66 22 19.32 22 20 22 C20.598125 23.051875 21.19625 24.10375 21.8125 25.1875 C23.50370009 28.14860478 25.23249052 31.08360936 27 34 C26.01 34.495 26.01 34.495 25 35 C24.44054687 34.20980469 23.88109375 33.41960937 23.3046875 32.60546875 C17.48289348 24.40826419 11.55677856 16.29361689 5.56005859 8.22338867 C4.9820752 7.44326416 4.4040918 6.66313965 3.80859375 5.859375 C3.03213501 4.81475098 3.03213501 4.81475098 2.23999023 3.74902344 C1 2 1 2 0 0 Z " fill="#161616" transform="translate(359,311)"/>
<path d="M0 0 C9.61382385 -0.06941597 19.22756185 -0.1227683 28.84158134 -0.15543652 C33.30544746 -0.17111319 37.76914251 -0.19238769 42.23291016 -0.22631836 C46.53821628 -0.25884085 50.84335756 -0.27683792 55.14877701 -0.28463173 C56.79389162 -0.29018808 58.4389969 -0.30103789 60.0840416 -0.31719017 C62.38288846 -0.33887053 64.68104834 -0.34197096 66.97998047 -0.34057617 C68.2901413 -0.34723801 69.60030212 -0.35389984 70.95016479 -0.36076355 C71.95661041 -0.24171158 72.96305603 -0.12265961 74 0 C74.99 1.485 74.99 1.485 76 3 C75.01 3 74.02 3 73 3 C72.505 2.505 72.505 2.505 72 2 C69.76142644 1.87588418 67.51894516 1.82196977 65.27709961 1.79467773 C64.5746965 1.78477814 63.8722934 1.77487854 63.14860535 1.76467896 C60.81655296 1.73297878 58.48448016 1.70827312 56.15234375 1.68359375 C54.53950965 1.66303156 52.92668104 1.64203529 51.31385803 1.62062073 C47.06090725 1.56532408 42.80790723 1.51594844 38.55487061 1.46777344 C34.21817625 1.41761369 29.88155373 1.36189885 25.54492188 1.30664062 C17.03000859 1.19896625 8.51503535 1.09754205 0 1 C0 0.67 0 0.34 0 0 Z " fill="#1E1E1E" transform="translate(176,104)"/>
<path d="M0 0 C0.88365234 1.10794922 0.88365234 1.10794922 1.78515625 2.23828125 C3.07549251 3.84721906 4.37195398 5.45135019 5.68359375 7.04296875 C12.51888459 15.40059608 18.72888981 24.21642579 25 33 C24.34 33.66 23.68 34.32 23 35 C22.14341797 33.77990234 22.14341797 33.77990234 21.26953125 32.53515625 C20.4512471 31.37709065 19.63216772 30.21958674 18.8125 29.0625 C18.37631348 28.44584473 17.94012695 27.82918945 17.49072266 27.19384766 C14.88423211 23.54076348 12.2106371 19.95739144 9.44140625 16.42578125 C8.55328247 15.28967407 8.55328247 15.28967407 7.6472168 14.13061523 C6.4785301 12.6431519 5.30175407 11.16200398 4.11645508 9.68774414 C3.58044678 9.00446045 3.04443848 8.32117676 2.4921875 7.6171875 C2.01120605 7.01503418 1.53022461 6.41288086 1.03466797 5.79248047 C0 4 0 4 0 0 Z " fill="#161616" transform="translate(390,350)"/>
<path d="M0 0 C4.16651486 3.93716542 7.54763949 8.19864376 10.9375 12.8125 C11.43701172 13.48603516 11.93652344 14.15957031 12.45117188 14.85351562 C13.45714716 16.20995972 14.45897329 17.56949117 15.45654297 18.93212891 C16.52971579 20.36992926 17.62995928 21.78775661 18.75048828 23.18896484 C19.30849121 23.89359863 19.86649414 24.59823242 20.44140625 25.32421875 C20.95517822 25.95803467 21.4689502 26.59185059 21.99829102 27.24487305 C22.32885498 27.82406494 22.65941895 28.40325684 23 29 C22.67 29.99 22.34 30.98 22 32 C16.68059806 25.65970273 11.52803085 19.1980241 6.5 12.625 C5.97180664 11.94759766 5.44361328 11.27019531 4.89941406 10.57226562 C2.27759886 7.11194969 0.34546721 4.47380043 0 0 Z " fill="#181818" transform="translate(298,169)"/>
<path d="M0 0 C3.61388003 3.41310892 6.30568739 6.83606233 9 11 C10.59183695 13.10279696 12.20226679 15.18903383 13.828125 17.265625 C15 19 15 19 15 21 C15.66 21 16.32 21 17 21 C18.65 23.97 20.3 26.94 22 30 C21.34 30.33 20.68 30.66 20 31 C18.96552734 29.58460938 18.96552734 29.58460938 17.91015625 28.140625 C17.45938721 27.52485596 17.00861816 26.90908691 16.54418945 26.2746582 C15.55077314 24.91720204 14.55843428 23.55895677 13.56713867 22.19995117 C11.17250227 18.92544837 8.76218724 15.67034555 6.265625 12.47265625 C5.85046631 11.93672852 5.43530762 11.40080078 5.00756836 10.84863281 C3.87262591 9.38978544 2.7275996 7.93879949 1.58203125 6.48828125 C0 4 0 4 0 0 Z " fill="#171717" transform="translate(416,385)"/>
<path d="M0 0 C0.66 0.66 1.32 1.32 2 2 C1.67 2.33 1.34 2.66 1 3 C20.14 3.33 39.28 3.66 59 4 C59 4.33 59 4.66 59 5 C28.31 5.495 28.31 5.495 -3 6 C-1 1 -1 1 0 0 Z " fill="#1E1E1E" transform="translate(142,631)"/>
<path d="M0 0 C0.66 0.66 1.32 1.32 2 2 C0.38287572 4.33916131 -1.24305362 6.67121701 -2.875 9 C-3.33519531 9.66773438 -3.79539063 10.33546875 -4.26953125 11.0234375 C-5.46305946 12.71859351 -6.72690339 14.3637578 -8 16 C-8.66 16 -9.32 16 -10 16 C-10.25523437 16.72574219 -10.51046875 17.45148437 -10.7734375 18.19921875 C-12.06801074 21.1552984 -13.60455104 23.30564666 -15.625 25.8125 C-16.25664062 26.60269531 -16.88828125 27.39289062 -17.5390625 28.20703125 C-18.02117187 28.79871094 -18.50328125 29.39039063 -19 30 C-19.66 29.34 -20.32 28.68 -21 28 C-20.61255615 27.50709473 -20.2251123 27.01418945 -19.82592773 26.50634766 C-9.57363478 13.50340321 -9.57363478 13.50340321 0 0 Z " fill="#1B1B1B" transform="translate(222,524)"/>
<path d="M0 0 C2 1.375 2 1.375 4 3 C4 3.66 4 4.32 4 5 C4.66 5 5.32 5 6 5 C7.41015625 6.984375 7.41015625 6.984375 9.0625 9.75 C13.00534488 16.14672513 17.42075097 22.0500914 22 28 C21.34 28.66 20.68 29.32 20 30 C19.34257812 29.08734375 19.34257812 29.08734375 18.671875 28.15625 C15.42606082 23.67016536 12.16890462 19.20453858 8.796875 14.8125 C8.25192383 14.09900391 7.70697266 13.38550781 7.14550781 12.65039062 C6.05699586 11.22789607 4.96266807 9.80983127 3.86230469 8.39648438 C3.36118164 7.73970703 2.86005859 7.08292969 2.34375 6.40625 C1.89193359 5.82166016 1.44011719 5.23707031 0.97460938 4.63476562 C0 3 0 3 0 0 Z " fill="#151515" transform="translate(491,487)"/>
<path d="M0 0 C0.99 0 1.98 0 3 0 C4.2031428 1.95116209 5.36082254 3.93045707 6.49609375 5.921875 C8.53870781 8.98936646 10.43358028 11.4542332 13.99493408 12.69506836 C19.6450916 13.69174094 25.35223091 13.43296246 31.0625 13.25 C32.80400734 13.2380086 34.54556102 13.23144963 36.28710938 13.23046875 C40.52786421 13.21634999 44.76123178 13.12849571 49 13 C49 13.33 49 13.66 49 14 C43.6294813 14.32382534 38.26473926 14.55827532 32.88671875 14.71411133 C31.0624694 14.77910182 29.23888733 14.86754252 27.41699219 14.98071289 C12.6647509 15.87344162 12.6647509 15.87344162 8.14831543 12.69818115 C4.65806523 9.2567138 2.21057829 5.3507769 0 1 C0 0.67 0 0.34 0 0 Z " fill="#1E1E1E" transform="translate(479,622)"/>
<path d="M0 0 C4.20603402 3.97365645 7.63028971 8.28782644 11.0625 12.9375 C11.57876953 13.62779297 12.09503906 14.31808594 12.62695312 15.02929688 C15.54114135 18.94581736 18.33210975 22.91179407 21 27 C20.01 27 19.02 27 18 27 C16.0625 24.69921875 16.0625 24.69921875 14 21.6875 C11.82064644 18.52991388 9.75646119 15.66249092 7 13 C5.64721885 11.01310269 4.31431695 9.01254782 3 7 C2.4225 6.278125 1.845 5.55625 1.25 4.8125 C0 3 0 3 0 0 Z " fill="#1C1C1C" transform="translate(618,595)"/>
<path d="M0 0 C3.60389763 3.4036811 6.29826716 6.85734297 9 11 C9.44730469 11.42667969 9.89460938 11.85335937 10.35546875 12.29296875 C12.66922306 14.69465672 14.3603319 17.40181749 16.1875 20.1875 C16.90292969 21.27417969 17.61835938 22.36085937 18.35546875 23.48046875 C18.89816406 24.31191406 19.44085938 25.14335937 20 26 C19.34 26.66 18.68 27.32 18 28 C17.38253906 27.12859375 16.76507813 26.2571875 16.12890625 25.359375 C10.53358025 17.48323673 4.83744032 9.69865318 -1 2 C-0.67 1.34 -0.34 0.68 0 0 Z " fill="#151515" transform="translate(292,218)"/>
<path d="M0 0 C3.54802777 0.2489844 4.76254503 0.74156844 7.2109375 3.40625 C8.28214844 4.93765625 8.28214844 4.93765625 9.375 6.5 C10.15155288 7.589106 10.92890631 8.67764162 11.70703125 9.765625 C12.46371094 10.83296875 13.22039062 11.9003125 14 13 C15.34331535 14.75834332 16.69614922 16.50949637 18.0625 18.25 C18.63097656 18.97703125 19.19945312 19.7040625 19.78515625 20.453125 C20.18605469 20.96359375 20.58695312 21.4740625 21 22 C20.34 22.66 19.68 23.32 19 24 C16 22 16 22 15 19 C14.34 18.67 13.68 18.34 13 18 C12.5359375 16.515 12.5359375 16.515 12.0625 15 C11.711875 14.01 11.36125 13.02 11 12 C10.01 11.67 9.02 11.34 8 11 C6.96564444 9.35443434 5.97236487 7.6829392 5 6 C3.39221353 3.94319208 1.70360692 1.9798675 0 0 Z " fill="#141414" transform="translate(470,402)"/>
<path d="M0 0 C2.76525987 2.66284284 5.14828896 5.38252559 7.41796875 8.4765625 C8.03220703 9.311875 8.64644531 10.1471875 9.27929688 11.0078125 C9.90900391 11.87148438 10.53871094 12.73515625 11.1875 13.625 C11.82880859 14.49640625 12.47011719 15.3678125 13.13085938 16.265625 C17.85627336 22.71254672 17.85627336 22.71254672 19 25 C18.34 25.66 17.68 26.32 17 27 C16.31292969 26.02417969 15.62585938 25.04835938 14.91796875 24.04296875 C14.00796443 22.75770492 13.09779976 21.4725546 12.1875 20.1875 C11.50977539 19.22360352 11.50977539 19.22360352 10.81835938 18.24023438 C10.15610352 17.30727539 10.15610352 17.30727539 9.48046875 16.35546875 C8.87561646 15.49924927 8.87561646 15.49924927 8.25854492 14.62573242 C7.02467187 12.94857021 7.02467187 12.94857021 5.41918945 11.48950195 C3.3439811 9.31147922 2.82243545 6.84689193 2 4 C1.34 4 0.68 4 0 4 C-0.33 3.01 -0.66 2.02 -1 1 C-0.67 0.67 -0.34 0.34 0 0 Z " fill="#191919" transform="translate(358,399)"/>
<path d="M0 0 C4.21444973 3.82942593 7.37320197 8.40476065 10.6875 13 C11.28111328 13.80695313 11.87472656 14.61390625 12.48632812 15.4453125 C13.05158203 16.22648437 13.61683594 17.00765625 14.19921875 17.8125 C14.97011841 18.87404297 14.97011841 18.87404297 15.7565918 19.95703125 C16.99742645 21.99577156 17.56394396 23.66737864 18 26 C14.23199569 22.3873077 11.01117601 18.60468189 7.875 14.4375 C7.44574219 13.87353516 7.01648438 13.30957031 6.57421875 12.72851562 C5.37846494 11.15563945 4.18902104 9.57797199 3 8 C2.40445312 7.28972656 1.80890625 6.57945312 1.1953125 5.84765625 C0 4 0 4 0 0 Z " fill="#1B1B1B" transform="translate(296,315)"/>
<path d="M0 0 C4.1382099 3.8104309 7.37475176 8.27686882 10.75 12.75 C11.35199219 13.54277344 11.95398438 14.33554688 12.57421875 15.15234375 C14.05220024 17.09952571 15.52735676 19.04877953 17 21 C16.34 21.66 15.68 22.32 15 23 C9.42548201 16.16528512 4.12882846 9.17490364 -1 2 C-0.67 1.34 -0.34 0.68 0 0 Z " fill="#1E1E1E" transform="translate(347,234)"/>
<path d="M0 0 C0.66 0 1.32 0 2 0 C0.83857315 4.35535069 -0.07699505 6.64619703 -4 9 C-4.66 8.67 -5.32 8.34 -6 8 C-5.04956626 6.66102417 -4.08940853 5.32894573 -3.125 4 C-2.59132813 3.2575 -2.05765625 2.515 -1.5078125 1.75 C-1.01023437 1.1725 -0.51265625 0.595 0 0 Z M-7 9 C-5 11 -5 11 -5 14 C-6.75 15.60546875 -6.75 15.60546875 -9 17.1875 C-9.7425 17.71730469 -10.485 18.24710937 -11.25 18.79296875 C-11.8275 19.19128906 -12.405 19.58960938 -13 20 C-13 16.39426104 -12.18292538 15.58663434 -10 12.8125 C-9.443125 12.09707031 -8.88625 11.38164062 -8.3125 10.64453125 C-7.879375 10.10183594 -7.44625 9.55914062 -7 9 Z " fill="#171717" transform="translate(278,450)"/>
<path d="M0 0 C3.94770164 3.74142534 7.16555496 7.69596624 10.3125 12.125 C10.76689453 12.74503906 11.22128906 13.36507812 11.68945312 14.00390625 C15 18.63369361 15 18.63369361 15 22 C10.83425022 18.07795039 7.51588273 13.83123826 4.1875 9.1875 C3.68541016 8.49462891 3.18332031 7.80175781 2.66601562 7.08789062 C1.4400012 5.39482309 0.2194351 3.69781244 -1 2 C-0.67 1.34 -0.34 0.68 0 0 Z " fill="#1E1E1E" transform="translate(219,211)"/>
<path d="M0 0 C6.78940774 6.17218885 11.64421419 13.98535411 16 22 C15.34 22.33 14.68 22.66 14 23 C13.32453125 22.04738281 12.6490625 21.09476563 11.953125 20.11328125 C11.0521602 18.8462995 10.15111423 17.57937548 9.25 16.3125 C8.8065625 15.68666016 8.363125 15.06082031 7.90625 14.41601562 C7.46796875 13.80048828 7.0296875 13.18496094 6.578125 12.55078125 C6.14564453 11.94314941 5.71316406 11.33551758 5.26757812 10.70947266 C4.13686076 9.18457223 2.90971658 7.73227112 1.671875 6.29296875 C0 4 0 4 0 0 Z " fill="#141414" transform="translate(540,552)"/>
<path d="M0 0 C3.60890751 3.46838368 6.68811913 7.03446898 9.6875 11.0625 C10.83798828 12.59583984 10.83798828 12.59583984 12.01171875 14.16015625 C13.58870912 16.41255703 14.87979648 18.50200606 16 21 C15.34 21.33 14.68 21.66 14 22 C11.65505969 18.90444714 9.32611372 15.79721767 7 12.6875 C6.33226562 11.80642578 5.66453125 10.92535156 4.9765625 10.01757812 C4.34492188 9.17001953 3.71328125 8.32246094 3.0625 7.44921875 C2.47597656 6.66893311 1.88945312 5.88864746 1.28515625 5.0847168 C0 3 0 3 0 0 Z " fill="#191919" transform="translate(170,208)"/>
<path d="M0 0 C0.91644287 0.00523682 1.83288574 0.01047363 2.77709961 0.01586914 C3.76645508 0.0190918 4.75581055 0.02231445 5.77514648 0.02563477 C6.81606445 0.03401367 7.85698242 0.04239258 8.92944336 0.05102539 C10.49662109 0.05779297 10.49662109 0.05779297 12.09545898 0.06469727 C14.68600996 0.07652627 17.27644895 0.0930085 19.86694336 0.11352539 C19.86694336 1.10352539 19.86694336 2.09352539 19.86694336 3.11352539 C18.88298584 3.15110962 18.88298584 3.15110962 17.87915039 3.18945312 C14.91654153 3.30525799 11.95426305 3.42805425 8.99194336 3.55102539 C7.9594043 3.5903418 6.92686523 3.6296582 5.86303711 3.67016602 C4.8769043 3.71206055 3.89077148 3.75395508 2.87475586 3.79711914 C1.9635498 3.83377686 1.05234375 3.87043457 0.11352539 3.90820312 C-2.16789145 3.97929604 -2.16789145 3.97929604 -4.13305664 5.11352539 C-3.01461887 0.16044383 -3.01461887 0.16044383 0 0 Z " fill="#3B3B3B" transform="translate(540.133056640625,102.886474609375)"/>
<path d="M0 0 C3.76951376 3.63367542 7.10208176 7.42938378 10.3125 11.5625 C10.76689453 12.12646484 11.22128906 12.69042969 11.68945312 13.27148438 C14.23848909 16.54881633 15 17.70737486 15 22 C14.43539063 21.29101562 13.87078125 20.58203125 13.2890625 19.8515625 C10.23499376 16.04700587 7.12737451 12.28734783 4.0234375 8.5234375 C0 3.50579151 0 3.50579151 0 0 Z " fill="#1B1B1B" transform="translate(262,178)"/>
<path d="M0 0 C3.60849208 3.4864968 6.80263372 7.07849717 9.875 11.0625 C10.67679687 12.08472656 11.47859375 13.10695313 12.3046875 14.16015625 C14 17 14 17 13 21 C8.38 14.73 3.76 8.46 -1 2 C-0.67 1.34 -0.34 0.68 0 0 Z " fill="#161616" transform="translate(425,338)"/>
<path d="M0 0 C0.66 0 1.32 0 2 0 C3.04390404 1.63952497 4.03160641 3.31477253 5 5 C6.68501182 7.46916083 8.43780215 9.88888144 10.1875 12.3125 C10.65091797 12.95767578 11.11433594 13.60285156 11.59179688 14.26757812 C12.72613506 15.84629622 13.86282862 17.42332148 15 19 C14.34 19.66 13.68 20.32 13 21 C11.03459329 18.30305233 9.0713214 15.60464783 7.11328125 12.90234375 C5.8725394 11.19833045 4.62355973 9.50016601 3.35546875 7.81640625 C0 3.31988473 0 3.31988473 0 0 Z " fill="#151515" transform="translate(432,557)"/>
<path d="M0 0 C0.66 0 1.32 0 2 0 C6 4.47058824 6 4.47058824 6 7 C6.66 7 7.32 7 8 7 C8.8971875 8.5778125 8.8971875 8.5778125 9.8125 10.1875 C11.50370009 13.14860478 13.23249052 16.08360936 15 19 C14.34 19.33 13.68 19.66 13 20 C10.82567574 17.04722495 8.66187271 14.08690044 6.5 11.125 C5.87996094 10.28324219 5.25992187 9.44148438 4.62109375 8.57421875 C4.03457031 7.76855469 3.44804687 6.96289062 2.84375 6.1328125 C2.02680664 5.01737061 2.02680664 5.01737061 1.19335938 3.87939453 C0 2 0 2 0 0 Z " fill="#171717" transform="translate(264,334)"/>
<path d="M0 0 C3.68881485 3.53156519 6.77382244 7.18534092 9.8125 11.3125 C10.21919922 11.86228516 10.62589844 12.41207031 11.04492188 12.97851562 C12.03368611 14.31625547 13.01738585 15.65773623 14 17 C13.34 17.66 12.68 18.32 12 19 C11.45730469 18.31292969 10.91460937 17.62585938 10.35546875 16.91796875 C9.64003906 16.01691406 8.92460937 15.11585937 8.1875 14.1875 C7.47980469 13.29417969 6.77210938 12.40085937 6.04296875 11.48046875 C4.13169726 9.07096644 4.13169726 9.07096644 2.3125 7.34375 C0.49644225 5.48445278 -0.14812279 3.42457359 -1 1 C-0.67 0.67 -0.34 0.34 0 0 Z " fill="#1D1D1D" transform="translate(253,109)"/>
<path d="M0 0 C3.92059864 3.80528692 7.50397741 7.80276944 11 12 C11.639375 12.7425 12.27875 13.485 12.9375 14.25 C13.288125 14.8275 13.63875 15.405 14 16 C13.67 16.99 13.34 17.98 13 19 C9.72554984 15.88326418 6.9803703 12.53784123 4.25 8.9375 C3.45078125 7.89464844 2.6515625 6.85179687 1.828125 5.77734375 C0 3 0 3 0 0 Z " fill="#191919" transform="translate(418,539)"/>
<path d="M0 0 C0.99 0.66 1.98 1.32 3 2 C2.34 2 1.68 2 1 2 C0.79375 2.680625 0.5875 3.36125 0.375 4.0625 C-1.1705807 7.36442241 -3.10625049 9.59501615 -5.5625 12.25390625 C-7.06040698 14.07337478 -8.02653218 15.86117887 -9 18 C-9.99 17.67 -10.98 17.34 -12 17 C-8.19648587 11.17334006 -4.23982103 5.51778127 0 0 Z " fill="#1D1D1D" transform="translate(162,604)"/>
<path d="M0 0 C3.60849208 3.4864968 6.80263372 7.07849717 9.875 11.0625 C10.67679688 12.08472656 11.47859375 13.10695313 12.3046875 14.16015625 C14 17 14 17 13.60595703 19.17749023 C13.40599121 19.77891846 13.20602539 20.38034668 13 21 C11.32756577 18.71234889 9.66193073 16.42026108 8 14.125 C7.28457031 13.14853516 7.28457031 13.14853516 6.5546875 12.15234375 C3 7.2265625 3 7.2265625 3 5 C2.34 5 1.68 5 1 5 C0.34 3.68 -0.32 2.36 -1 1 C-0.67 0.67 -0.34 0.34 0 0 Z " fill="#181818" transform="translate(549,503)"/>
<path d="M0 0 C3.07428805 2.92298081 5.58561073 5.99658061 8.0625 9.4375 C8.73410156 10.36433594 9.40570313 11.29117187 10.09765625 12.24609375 C11.84575 14.77670174 13.45225499 17.34327882 15 20 C14.34 20.33 13.68 20.66 13 21 C10.81759172 18.26216703 8.65698531 15.50789182 6.5 12.75 C5.87996094 11.97269531 5.25992187 11.19539063 4.62109375 10.39453125 C3.74130859 9.26337891 3.74130859 9.26337891 2.84375 8.109375 C2.02680664 7.07248535 2.02680664 7.07248535 1.19335938 6.01464844 C0 4 0 4 0 0 Z " fill="#171717" transform="translate(364,466)"/>
<path d="M0 0 C7.59 0 15.18 0 23 0 C20.75 6.75 20.75 6.75 18.375 9.375 C17.59125 10.24125 16.8075 11.1075 16 12 C15.34 11.67 14.68 11.34 14 11 C16.31 7.7 18.62 4.4 21 1 C14.07 1 7.14 1 0 1 C0 0.67 0 0.34 0 0 Z " fill="#1F1F1F" transform="translate(576,104)"/>
<path d="M0 0 C4.30851104 1.54304814 6.49661902 4.83409506 9.125 8.375 C9.56714844 8.9525 10.00929688 9.53 10.46484375 10.125 C12.61221397 12.96653522 14.56665183 15.73067778 16 19 C15.34 19.33 14.68 19.66 14 20 C12.41545708 17.79252608 10.83233947 15.58405258 9.25 13.375 C8.8065625 12.75753906 8.363125 12.14007812 7.90625 11.50390625 C5.19492438 7.71602487 2.561826 3.8906236 0 0 Z " fill="#111111" transform="translate(455,590)"/>
<path d="M0 0 C3.68881485 3.53156519 6.77382244 7.18534092 9.8125 11.3125 C10.21919922 11.86228516 10.62589844 12.41207031 11.04492188 12.97851562 C12.03368611 14.31625547 13.01738585 15.65773623 14 17 C13.34 17.66 12.68 18.32 12 19 C10.39245904 16.94005539 8.7889195 14.87719524 7.1875 12.8125 C6.73568359 12.23435547 6.28386719 11.65621094 5.81835938 11.06054688 C3.30818834 7.81747919 1.02756611 4.57686912 -1 1 C-0.67 0.67 -0.34 0.34 0 0 Z " fill="#1B1B1B" transform="translate(471,552)"/>
<path d="M0 0 C4.30851104 1.54304814 6.49661902 4.83409506 9.125 8.375 C9.56714844 8.9525 10.00929687 9.53 10.46484375 10.125 C12.61221397 12.96653522 14.56665183 15.73067778 16 19 C15.34 19.33 14.68 19.66 14 20 C12.41545708 17.79252608 10.83233947 15.58405258 9.25 13.375 C8.8065625 12.75753906 8.363125 12.14007813 7.90625 11.50390625 C5.19492438 7.71602487 2.561826 3.8906236 0 0 Z " fill="#151515" transform="translate(215,270)"/>
<path d="M0 0 C3.31938559 3.13666712 6.05462121 6.58007057 8.75 10.25 C9.36681641 11.08144531 9.36681641 11.08144531 9.99609375 11.9296875 C11.00035358 13.28427052 12.00059353 14.64183224 13 16 C12.34 16.66 11.68 17.32 11 18 C7.04 12.72 3.08 7.44 -1 2 C-0.67 1.34 -0.34 0.68 0 0 Z " fill="#1A1A1A" transform="translate(324,353)"/>
<path d="M0 0 C0.99 0.33 1.98 0.66 3 1 C1.23161621 3.27277849 -0.5395861 5.54325964 -2.3125 7.8125 C-2.81201172 8.45509766 -3.31152344 9.09769531 -3.82617188 9.75976562 C-4.55610352 10.69272461 -4.55610352 10.69272461 -5.30078125 11.64453125 C-5.74591064 12.21534424 -6.19104004 12.78615723 -6.6496582 13.37426758 C-8.01546416 15.01861794 -9.46578334 16.5130506 -11 18 C-11 14.6181337 -10.55473195 14.03299589 -8.59375 11.42578125 C-8.09746094 10.75869141 -7.60117187 10.09160156 -7.08984375 9.40429688 C-6.56519531 8.71400391 -6.04054688 8.02371094 -5.5 7.3125 C-4.97535156 6.61060547 -4.45070313 5.90871094 -3.91015625 5.18554688 C-2.61313301 3.45225218 -1.3073845 1.72549285 0 0 Z " fill="#191919" transform="translate(571,140)"/>
<path d="M0 0 C4.62233847 1.53357959 6.6356531 5.28707795 9.25 9.125 C9.70890625 9.78371094 10.1678125 10.44242188 10.640625 11.12109375 C11.76821231 12.7420005 12.88516391 14.37029686 14 16 C13.34 16.66 12.68 17.32 12 18 C9.99224902 15.38084613 7.99515805 12.75375554 6 10.125 C5.42765625 9.37863281 4.8553125 8.63226562 4.265625 7.86328125 C3.72421875 7.14785156 3.1828125 6.43242188 2.625 5.6953125 C2.12226562 5.03547363 1.61953125 4.37563477 1.1015625 3.69580078 C0 2 0 2 0 0 Z " fill="#151515" transform="translate(520,527)"/>
<path d="M0 0 C3.31938559 3.13666712 6.05462121 6.58007057 8.75 10.25 C9.36681641 11.08144531 9.36681641 11.08144531 9.99609375 11.9296875 C11.00035358 13.28427052 12.00059353 14.64183224 13 16 C12.34 16.66 11.68 17.32 11 18 C9.37076065 15.91986415 7.7465453 13.83612026 6.125 11.75 C5.66480469 11.16347656 5.20460938 10.57695312 4.73046875 9.97265625 C2.49615028 7.09070923 0.4532826 4.37428833 -1 1 C-0.67 0.67 -0.34 0.34 0 0 Z " fill="#1C1C1C" transform="translate(395,449)"/>
<path d="M0 0 C3.98499078 1.52922897 5.82276445 3.97949228 8.3125 7.375 C9.38951172 8.80972656 9.38951172 8.80972656 10.48828125 10.2734375 C12 13 12 13 11.59448242 15.17041016 C11.39830322 15.7741748 11.20212402 16.37793945 11 17 C9.34949862 14.73243277 7.70449972 12.46121039 6.0625 10.1875 C5.59392578 9.54490234 5.12535156 8.90230469 4.64257812 8.24023438 C3.9706543 7.30727539 3.9706543 7.30727539 3.28515625 6.35546875 C2.87144775 5.78465576 2.45773926 5.21384277 2.03149414 4.62573242 C1 3 1 3 0 0 Z " fill="#1B1B1B" transform="translate(424,490)"/>
<path d="M0 0 C0.66 0 1.32 0 2 0 C3.23681641 1.46875 3.23681641 1.46875 4.6015625 3.5 C5.09140625 4.221875 5.58125 4.94375 6.0859375 5.6875 C6.59382813 6.450625 7.10171875 7.21375 7.625 8 C8.3984375 9.1446875 8.3984375 9.1446875 9.1875 10.3125 C10.46447818 12.20431952 11.73493968 14.10019898 13 16 C12.34 16.66 11.68 17.32 11 18 C9.34648668 15.75530315 7.70214519 13.50479175 6.0625 11.25 C5.59392578 10.61578125 5.12535156 9.9815625 4.64257812 9.328125 C3.9706543 8.4 3.9706543 8.4 3.28515625 7.453125 C2.87144775 6.88754883 2.45773926 6.32197266 2.03149414 5.73925781 C0.90789893 3.84470343 0.4304947 2.15041371 0 0 Z " fill="#171717" transform="translate(439,417)"/>
<path d="M0 0 C0.73828125 1.68359375 0.73828125 1.68359375 1 4 C-0.58203125 6.47265625 -0.58203125 6.47265625 -2.8125 9.0625 C-5.02922624 11.67156717 -7.09878291 14.14817436 -9 17 C-9.99 16.67 -10.98 16.34 -12 16 C-11.30132812 15.09636719 -10.60265625 14.19273437 -9.8828125 13.26171875 C-8.96349026 12.07035217 -8.04422226 10.87894373 -7.125 9.6875 C-6.66480469 9.09259766 -6.20460938 8.49769531 -5.73046875 7.88476562 C-3.73752851 5.29971995 -1.81133955 2.71700932 0 0 Z " fill="#191919" transform="translate(435,240)"/>
<path d="M0 0 C5.17226615 4.6873662 8.98925493 10.31728181 13 16 C12.34 16.66 11.68 17.32 11 18 C7.04 12.72 3.08 7.44 -1 2 C-0.67 1.34 -0.34 0.68 0 0 Z " fill="#1A1A1A" transform="translate(122,144)"/>
<path d="M0 0 C1.125 3.75 1.125 3.75 0 6 C-0.66 6 -1.32 6 -2 6 C-2.2475 6.94875 -2.495 7.8975 -2.75 8.875 C-4 12 -4 12 -6.0625 13.25 C-6.701875 13.4975 -7.34125 13.745 -8 14 C-8.33 14.66 -8.66 15.32 -9 16 C-8.47515308 11.44299575 -6.68492697 8.807126 -3.9375 5.1875 C-3.20402344 4.21167969 -2.47054688 3.23585938 -1.71484375 2.23046875 C-1.14894531 1.49441406 -0.58304687 0.75835937 0 0 Z " fill="#171717" transform="translate(309,408)"/>
<path d="M0 0 C5.17226615 4.6873662 8.98925493 10.31728181 13 16 C12.34 16.66 11.68 17.32 11 18 C9.34648668 15.75530315 7.70214519 13.50479175 6.0625 11.25 C5.59392578 10.61578125 5.12535156 9.9815625 4.64257812 9.328125 C3.9706543 8.4 3.9706543 8.4 3.28515625 7.453125 C2.87144775 6.88754883 2.45773926 6.32197266 2.03149414 5.73925781 C0.90789893 3.84470343 0.4304947 2.15041371 0 0 Z " fill="#171717" transform="translate(474,464)"/>
<path d="M0 0 C2.85215083 2.75118973 5.34358701 5.60315225 7.75 8.75 C8.36359375 9.54921875 8.9771875 10.3484375 9.609375 11.171875 C10.06828125 11.77515625 10.5271875 12.3784375 11 13 C10.34 13.66 9.68 14.32 9 15 C5.7284849 12.81898993 4.90963762 11.36096221 3 8 C1.67541292 5.99419671 0.3440093 3.99284138 -1 2 C-0.67 1.34 -0.34 0.68 0 0 Z " fill="#181818" transform="translate(501,439)"/>
<path d="M0 0 C3.04640463 2.86720436 5.78043089 5.83935407 8.375 9.125 C8.89835937 9.78757812 9.42171875 10.45015625 9.9609375 11.1328125 C10.30382812 11.74898438 10.64671875 12.36515625 11 13 C10.67 13.99 10.34 14.98 10 16 C9.34 15.67 8.68 15.34 8 15 C8 14.01 8 13.02 8 12 C7.34 12 6.68 12 6 12 C5.34 10.35 4.68 8.7 4 7 C3.34 7 2.68 7 2 7 C0.5393715 4.35261084 0 3.10551666 0 0 Z " fill="#191919" transform="translate(337,371)"/>
<path d="M0 0 C3.92247359 3.69833224 7.1189547 7.42422217 10 12 C9.67 12.99 9.34 13.98 9 15 C7.51551984 13.23361856 6.03758035 11.46173862 4.5625 9.6875 C3.73878906 8.70136719 2.91507812 7.71523437 2.06640625 6.69921875 C0 4 0 4 -1 1 C-0.67 0.67 -0.34 0.34 0 0 Z " fill="#1F1F1F" transform="translate(335,218)"/>
<path d="M0 0 C0.33 0.99 0.66 1.98 1 3 C-0.24609375 4.9296875 -0.24609375 4.9296875 -2 7 C-2.50660156 7.68320312 -3.01320312 8.36640625 -3.53515625 9.0703125 C-4.03917969 9.74835937 -4.54320312 10.42640625 -5.0625 11.125 C-5.56910156 11.80820312 -6.07570312 12.49140625 -6.59765625 13.1953125 C-8 15 -8 15 -10 17 C-9.51814387 12.2778099 -7.30336567 9.29945628 -4.4375 5.6875 C-4.01275391 5.13771484 -3.58800781 4.58792969 -3.15039062 4.02148438 C-2.10818741 2.6748173 -1.05516157 1.33653799 0 0 Z " fill="#1C1C1C" transform="translate(187,571)"/>
<path d="M0 0 C3.04640463 2.86720436 5.78043089 5.83935407 8.375 9.125 C8.89835938 9.78757812 9.42171875 10.45015625 9.9609375 11.1328125 C10.30382812 11.74898437 10.64671875 12.36515625 11 13 C10.67 13.99 10.34 14.98 10 16 C9.67 15.01 9.34 14.02 9 13 C8.34 13 7.68 13 7 13 C7 12.34 7 11.68 7 11 C6.34 11 5.68 11 5 11 C4.0234375 9.20963542 3.046875 7.41927083 2.0703125 5.62890625 C1.08589976 3.83381685 1.08589976 3.83381685 -1 3 C-0.67 2.01 -0.34 1.02 0 0 Z " fill="#151515" transform="translate(564,523)"/>
<path d="M0 0 C4.54075781 4.14010271 7.71842138 8.82390176 11 14 C10.01 14 9.02 14 8 14 C5.95703125 11.953125 5.95703125 11.953125 3.8125 9.25 C3.09707031 8.36828125 2.38164062 7.4865625 1.64453125 6.578125 C0 4 0 4 0 0 Z " fill="#1D1D1D" transform="translate(383,433)"/>
<path d="M0 0 C4.54075781 4.14010271 7.71842138 8.82390176 11 14 C10.01 14 9.02 14 8 14 C6.30369687 12.03123367 4.80463882 10.11326838 3.3125 8 C2.89677734 7.42765625 2.48105469 6.8553125 2.05273438 6.265625 C1.02643139 4.85003468 0.01206601 3.42580369 -1 2 C-0.67 1.34 -0.34 0.68 0 0 Z " fill="#1E1E1E" transform="translate(371,266)"/>
<path d="M0 0 C0.598125 0.78375 1.19625 1.5675 1.8125 2.375 C3.91085249 5.14574323 3.91085249 5.14574323 7 7 C9.43257326 10.42362163 10 11.67849437 10 16 C7.32184824 13.52785991 5.00035352 10.85826892 2.75 8 C1.96882813 7.01 1.96882813 7.01 1.171875 6 C0 4 0 4 0 0 Z " fill="#131313" transform="translate(316,250)"/>
<path d="M0 0 C0.99 0 1.98 0 3 0 C4.73595179 1.90423283 6.23750432 3.74415023 7.75 5.8125 C8.17410156 6.35970703 8.59820312 6.90691406 9.03515625 7.47070312 C10.234375 9.08203125 10.234375 9.08203125 12 12 C11.67 12.99 11.34 13.98 11 15 C9.5369343 13.25395451 8.0797192 11.50300547 6.625 9.75 C5.81289063 8.77546875 5.00078125 7.8009375 4.1640625 6.796875 C2.42148243 4.5447318 1.123584 2.59288614 0 0 Z " fill="#181818" transform="translate(282,150)"/>
<path d="M0 0 C4.54075781 4.14010271 7.71842138 8.82390176 11 14 C10.01 14 9.02 14 8 14 C6.30369687 12.03123367 4.80463882 10.11326838 3.3125 8 C2.89677734 7.42765625 2.48105469 6.8553125 2.05273438 6.265625 C1.02643139 4.85003468 0.01206601 3.42580369 -1 2 C-0.67 1.34 -0.34 0.68 0 0 Z " fill="#191919" transform="translate(271,133)"/>
<path d="M0 0 C4.54075781 4.14010271 7.71842138 8.82390176 11 14 C10.01 14 9.02 14 8 14 C6.46484375 12.35546875 6.46484375 12.35546875 4.9375 10.1875 C4.43089844 9.47980469 3.92429687 8.77210938 3.40234375 8.04296875 C0 3.08635097 0 3.08635097 0 0 Z " fill="#1B1B1B" transform="translate(451,525)"/>
<path d="M0 0 C4.20240011 3.71750779 6.99782679 8.31660979 10 13 C9.01 13 8.02 13 7 13 C4.95703125 10.59375 4.95703125 10.59375 2.8125 7.5 C2.09707031 6.4790625 1.38164062 5.458125 0.64453125 4.40625 C0.10183594 3.6121875 -0.44085938 2.818125 -1 2 C-0.67 1.34 -0.34 0.68 0 0 Z " fill="#191919" transform="translate(205,192)"/>
<path d="M0 0 C0.66 0 1.32 0 2 0 C0.65070536 3.83663072 -1.07751025 6.65172569 -3.625 9.8125 C-4.25664063 10.60269531 -4.88828125 11.39289063 -5.5390625 12.20703125 C-6.02117188 12.79871094 -6.50328125 13.39039062 -7 14 C-7.99 13.67 -8.98 13.34 -10 13 C-9.36191406 12.22914062 -8.72382812 11.45828125 -8.06640625 10.6640625 C-6.82697266 9.15972656 -6.82697266 9.15972656 -5.5625 7.625 C-4.73878906 6.62726563 -3.91507813 5.62953125 -3.06640625 4.6015625 C-1.01584166 2.20344705 -1.01584166 2.20344705 0 0 Z " fill="#181818" transform="translate(533,109)"/>
<path d="M0 0 C3.01693943 2.85674795 5.40554531 5.82348931 7.75 9.25 C8.67039062 10.58804687 8.67039062 10.58804687 9.609375 11.953125 C10.06828125 12.62859375 10.5271875 13.3040625 11 14 C10.34 14.66 9.68 15.32 9 16 C7.67683464 14.27898082 6.36685476 12.54781907 5.0625 10.8125 C4.33160156 9.84957031 3.60070312 8.88664062 2.84765625 7.89453125 C1.07047254 5.11040201 0.37354556 3.24332415 0 0 Z " fill="#1C1C1C" transform="translate(502,501)"/>
<path d="M0 0 C4.54075781 4.14010271 7.71842138 8.82390176 11 14 C10.01 14 9.02 14 8 14 C5.95703125 11.69921875 5.95703125 11.69921875 3.8125 8.6875 C3.09707031 7.70136719 2.38164062 6.71523437 1.64453125 5.69921875 C0 3 0 3 0 0 Z " fill="#1B1B1B" transform="translate(279,201)"/>
<path d="M0 0 C4.54075781 4.14010271 7.71842138 8.82390176 11 14 C10.01 14 9.02 14 8 14 C5.95703125 11.69921875 5.95703125 11.69921875 3.8125 8.6875 C3.09707031 7.70136719 2.38164062 6.71523437 1.64453125 5.69921875 C0 3 0 3 0 0 Z " fill="#181818" transform="translate(184,164)"/>
<path d="M0 0 C4.20240011 3.71750779 6.99782679 8.31660979 10 13 C9.01 13 8.02 13 7 13 C4.95703125 10.59375 4.95703125 10.59375 2.8125 7.5 C2.09707031 6.4790625 1.38164062 5.458125 0.64453125 4.40625 C0.10183594 3.6121875 -0.44085938 2.818125 -1 2 C-0.67 1.34 -0.34 0.68 0 0 Z " fill="#1B1B1B" transform="translate(438,507)"/>
<path d="M0 0 C3.19249477 2.96647745 5.4592987 6.04963636 7.75 9.75 C8.36359375 10.73484375 8.9771875 11.7196875 9.609375 12.734375 C10.29773438 13.85585938 10.29773438 13.85585938 11 15 C10.01 15.495 10.01 15.495 9 16 C7.67683464 14.27898082 6.36685476 12.54781907 5.0625 10.8125 C4.33160156 9.84957031 3.60070312 8.88664062 2.84765625 7.89453125 C1.07047254 5.11040201 0.37354556 3.24332415 0 0 Z " fill="#171717" transform="translate(244,306)"/>
<path d="M0 0 C0.73828125 1.671875 0.73828125 1.671875 1 4 C-0.58203125 6.578125 -0.58203125 6.578125 -2.8125 9.25 C-3.54082031 10.14203125 -4.26914062 11.0340625 -5.01953125 11.953125 C-5.67308594 12.62859375 -6.32664062 13.3040625 -7 14 C-7.66 14 -8.32 14 -9 14 C-7.45158425 10.65291949 -5.50894136 7.75332488 -3.375 4.75 C-2.74335938 3.85796875 -2.11171875 2.9659375 -1.4609375 2.046875 C-0.73777344 1.03367187 -0.73777344 1.03367187 0 0 Z " fill="#151515" transform="translate(304,496)"/>
<path d="M0 0 C0.99 0 1.98 0 3 0 C5.04296875 2.40625 5.04296875 2.40625 7.1875 5.5 C8.26064453 7.03140625 8.26064453 7.03140625 9.35546875 8.59375 C9.89816406 9.3878125 10.44085938 10.181875 11 11 C10.34 11.66 9.68 12.32 9 13 C7.49710267 11.02297434 5.99758658 9.0435417 4.5 7.0625 C4.07074219 6.49853516 3.64148438 5.93457031 3.19921875 5.35351562 C0 1.11328125 0 1.11328125 0 0 Z " fill="#1B1B1B" transform="translate(451,435)"/>
<path d="M0 0 C4.20240011 3.71750779 6.99782679 8.31660979 10 13 C9.01 13 8.02 13 7 13 C4.95703125 10.59375 4.95703125 10.59375 2.8125 7.5 C2.09707031 6.4790625 1.38164062 5.458125 0.64453125 4.40625 C0.10183594 3.6121875 -0.44085938 2.818125 -1 2 C-0.67 1.34 -0.34 0.68 0 0 Z " fill="#1C1C1C" transform="translate(273,284)"/>
<path d="M0 0 C0.99 0 1.98 0 3 0 C5.078125 2.30078125 5.078125 2.30078125 7.25 5.3125 C8.34054687 6.79169922 8.34054687 6.79169922 9.453125 8.30078125 C9.96359375 9.19152344 10.4740625 10.08226562 11 11 C10.67 11.99 10.34 12.98 10 14 C8.33041937 11.85637773 6.66423643 9.71026458 5 7.5625 C4.52304687 6.95083984 4.04609375 6.33917969 3.5546875 5.70898438 C0 1.11328125 0 1.11328125 0 0 Z " fill="#101010" transform="translate(479,622)"/>
<path d="M0 0 C0.99 0.33 1.98 0.66 3 1 C-1.455 6.94 -1.455 6.94 -6 13 C-6.33 11.68 -6.66 10.36 -7 9 C-5.56640625 6.640625 -5.56640625 6.640625 -3.5625 4.25 C-2.57443359 3.05117187 -2.57443359 3.05117187 -1.56640625 1.828125 C-1.04949219 1.22484375 -0.53257812 0.6215625 0 0 Z " fill="#1A1A1A" transform="translate(444,228)"/>
<path d="M0 0 C3.9252025 3.70090521 6.94580156 7.54959656 10 12 C9.34 12.66 8.68 13.32 8 14 C6.65804628 12.23569031 5.32668332 10.4633209 4 8.6875 C3.2575 7.70136719 2.515 6.71523437 1.75 5.69921875 C0 3 0 3 0 0 Z " fill="#141414" transform="translate(98,112)"/>
<path d="M0 0 C3.28788824 3.11016455 5.83735988 6.01618925 8 10 C5 10 5 10 3 9 C2.67 8.01 2.34 7.02 2 6 C1.34 5.67 0.68 5.34 0 5 C-0.6875 3 -0.6875 3 -1 1 C-0.67 0.67 -0.34 0.34 0 0 Z " fill="#212121" transform="translate(483,415)"/>
<path d="M0 0 C4.52048157 3.13922331 6.51545911 6.21495828 9 11 C8.01 11 7.02 11 6 11 C4.39453125 9.35546875 4.39453125 9.35546875 2.8125 7.1875 C2.28269531 6.47980469 1.75289063 5.77210938 1.20703125 5.04296875 C0 3 0 3 0 0 Z " fill="#1A1A1A" transform="translate(391,503)"/>
<path d="M0 0 C2.46528135 0.39064415 3.73307988 0.73239371 5.51953125 2.5234375 C6.15955078 3.43996094 6.15955078 3.43996094 6.8125 4.375 C7.25207031 4.98085938 7.69164062 5.58671875 8.14453125 6.2109375 C9 8 9 8 8 11 C6.66375099 9.35653302 5.33107149 7.71016314 4 6.0625 C3.2575 5.14597656 2.515 4.22945313 1.75 3.28515625 C0 1 0 1 0 0 Z " fill="#1C1C1C" transform="translate(410,472)"/>
<path d="M0 0 C3.68006822 3.38168431 5.9785845 6.42521756 8 11 C7.01 11.495 7.01 11.495 6 12 C3.69 8.7 1.38 5.4 -1 2 C-0.67 1.34 -0.34 0.68 0 0 Z " fill="#171717" transform="translate(304,386)"/>
<path d="M0 0 C7.4 7.2 7.4 7.2 9 12 C8.01 12.495 8.01 12.495 7 13 C5.82157218 11.59310148 4.65762602 10.17406375 3.5 8.75 C2.8503125 7.96109375 2.200625 7.1721875 1.53125 6.359375 C0 4 0 4 0 0 Z " fill="#101010" transform="translate(160,194)"/>
<path d="M0 0 C3.28788824 3.11016455 5.83735988 6.01618925 8 10 C6.68 10 5.36 10 4 10 C2.35 7.03 0.7 4.06 -1 1 C-0.67 0.67 -0.34 0.34 0 0 Z " fill="#212121" transform="translate(607,580)"/>
<path d="M0 0 C0.99 0.33 1.98 0.66 3 1 C1.35 3.64 -0.3 6.28 -2 9 C-3.32 8.67 -4.64 8.34 -6 8 C-4.02 5.36 -2.04 2.72 0 0 Z " fill="#161616" transform="translate(261,472)"/>
<path d="M0 0 C3.2626876 3.08632611 6.02235218 5.93483504 8 10 C7.67 10.66 7.34 11.32 7 12 C6.03644756 10.92130607 5.07938583 9.83681257 4.125 8.75 C3.59132813 8.14671875 3.05765625 7.5434375 2.5078125 6.921875 C1.0202513 5.02581254 -0.00322436 3.18709995 -1 1 C-0.67 0.67 -0.34 0.34 0 0 Z " fill="#181818" transform="translate(315,341)"/>
<path d="M0 0 C0.33 0.99 0.66 1.98 1 3 C-0.43359375 5.48046875 -0.43359375 5.48046875 -2.4375 8.1875 C-3.09621094 9.08855469 -3.75492187 9.98960937 -4.43359375 10.91796875 C-5.20896484 11.94857422 -5.20896484 11.94857422 -6 13 C-6.66 12.34 -7.32 11.68 -8 11 C-5.36 7.37 -2.72 3.74 0 0 Z " fill="#131313" transform="translate(460,288)"/>
<path d="M0 0 C6.24675325 6.07792208 6.24675325 6.07792208 8 9 C7.67 9.99 7.34 10.98 7 12 C5.82455195 10.56967163 4.65989738 9.13046758 3.5 7.6875 C2.8503125 6.88699219 2.200625 6.08648437 1.53125 5.26171875 C0 3 0 3 0 0 Z " fill="#171717" transform="translate(252,256)"/>
<path d="M0 0 C3.41742782 1.13914261 4.12880598 2.06390308 6.25 4.875 C6.79140625 5.57367187 7.3328125 6.27234375 7.890625 6.9921875 C8.25671875 7.65476562 8.6228125 8.31734375 9 9 C8.67 9.99 8.34 10.98 8 12 C6.66081194 10.37982158 5.3288031 8.75370657 4 7.125 C3.2575 6.22007812 2.515 5.31515625 1.75 4.3828125 C0 2 0 2 0 0 Z " fill="#151515" transform="translate(578,543)"/>
<path d="M0 0 C3.44566799 3.17364157 5.41472527 5.61000844 7 10 C7.66 10.33 8.32 10.66 9 11 C8.01 11.33 7.02 11.66 6 12 C4.98829382 10.75945552 3.99102203 9.5071298 3 8.25 C2.443125 7.55390625 1.88625 6.8578125 1.3125 6.140625 C0 4 0 4 0 0 Z " fill="#151515" transform="translate(232,290)"/>
<path d="M0 0 C3.68006822 3.38168431 5.9785845 6.42521756 8 11 C7.01 11.495 7.01 11.495 6 12 C4.98829382 10.75945552 3.99102203 9.5071298 3 8.25 C2.443125 7.55390625 1.88625 6.8578125 1.3125 6.140625 C0 4 0 4 0 0 Z " fill="#181818" transform="translate(208,258)"/>
<path d="M0 0 C0.66 0 1.32 0 2 0 C2.66 1.65 3.32 3.3 4 5 C4.66 5 5.32 5 6 5 C6.66 6.65 7.32 8.3 8 10 C7.01 10.495 7.01 10.495 6 11 C4.99126984 9.73608512 3.99328178 8.46359117 3 7.1875 C2.443125 6.47980469 1.88625 5.77210938 1.3125 5.04296875 C0 3 0 3 0 0 Z " fill="#181818" transform="translate(139,167)"/>
<path d="M0 0 C0.66 0.66 1.32 1.32 2 2 C-0.31 4.97 -2.62 7.94 -5 11 C-5.66 10.34 -6.32 9.68 -7 9 C-4.69 6.03 -2.38 3.06 0 0 Z " fill="#242424" transform="translate(507,144)"/>
<path d="M0 0 C0.66 0 1.32 0 2 0 C3.5078125 1.96875 3.5078125 1.96875 5.125 4.5 C5.66382813 5.3353125 6.20265625 6.170625 6.7578125 7.03125 C7.16773438 7.6809375 7.57765625 8.330625 8 9 C7.34 9.66 6.68 10.32 6 11 C4.99126984 9.73608512 3.99328178 8.46359117 3 7.1875 C2.443125 6.47980469 1.88625 5.77210938 1.3125 5.04296875 C0 3 0 3 0 0 Z " fill="#181818" transform="translate(563,584)"/>
<path d="M0 0 C3.67033927 3.27708863 5.69281189 6.71522208 8 11 C7.01 11.495 7.01 11.495 6 12 C4.98829382 10.75945552 3.99102203 9.5071298 3 8.25 C2.443125 7.55390625 1.88625 6.8578125 1.3125 6.140625 C0 4 0 4 0 0 Z " fill="#191919" transform="translate(448,578)"/>
<path d="M0 0 C3.28788824 3.11016455 5.83735988 6.01618925 8 10 C7.01 10 6.02 10 5 10 C3.61328125 8.57421875 3.61328125 8.57421875 2.3125 6.6875 C1.87550781 6.07261719 1.43851563 5.45773437 0.98828125 4.82421875 C0 3 0 3 0 0 Z " fill="#1E1E1E" transform="translate(528,475)"/>
<path d="M0 0 C5.13623978 4.95912807 5.13623978 4.95912807 7 8 C6.67 8.99 6.34 9.98 6 11 C5.67 10.01 5.34 9.02 5 8 C4.01 7.67 3.02 7.34 2 7 C0.3125 3.9375 0.3125 3.9375 -1 1 C-0.67 0.67 -0.34 0.34 0 0 Z " fill="#1A1A1A" transform="translate(441,359)"/>
<path d="M0 0 C3.67033927 3.27708863 5.69281189 6.71522208 8 11 C7.01 11.495 7.01 11.495 6 12 C4.98829382 10.75945552 3.99102203 9.5071298 3 8.25 C2.443125 7.55390625 1.88625 6.8578125 1.3125 6.140625 C0 4 0 4 0 0 Z " fill="#171717" transform="translate(280,354)"/>
<path d="M0 0 C3.67033927 3.27708863 5.69281189 6.71522208 8 11 C7.01 11.495 7.01 11.495 6 12 C4.98829382 10.75945552 3.99102203 9.5071298 3 8.25 C2.443125 7.55390625 1.88625 6.8578125 1.3125 6.140625 C0 4 0 4 0 0 Z " fill="#191919" transform="translate(256,322)"/>
<path d="M0 0 C0.66 0 1.32 0 2 0 C0.25731793 3.96064107 -2.14674729 7.74436549 -5 11 C-5.66 11 -6.32 11 -7 11 C-5.25731793 7.03935893 -2.85325271 3.25563451 0 0 Z " fill="#151515" transform="translate(449,303)"/>
<path d="M0 0 C3.67033927 3.27708863 5.69281189 6.71522208 8 11 C7.01 11.495 7.01 11.495 6 12 C4.98829382 10.75945552 3.99102203 9.5071298 3 8.25 C2.443125 7.55390625 1.88625 6.8578125 1.3125 6.140625 C0 4 0 4 0 0 Z " fill="#1B1B1B" transform="translate(347,292)"/>
<path d="M0 0 C0.66 0 1.32 0 2 0 C3.5078125 1.96875 3.5078125 1.96875 5.125 4.5 C5.66382813 5.3353125 6.20265625 6.170625 6.7578125 7.03125 C7.16773438 7.6809375 7.57765625 8.330625 8 9 C7.34 9.66 6.68 10.32 6 11 C4.99126984 9.73608512 3.99328178 8.46359117 3 7.1875 C2.443125 6.47980469 1.88625 5.77210938 1.3125 5.04296875 C0 3 0 3 0 0 Z " fill="#1B1B1B" transform="translate(327,266)"/>
<path d="M0 0 C2.64752004 2.57784846 4.94432065 4.91648098 7 8 C6.67 8.99 6.34 9.98 6 11 C3.69 8.03 1.38 5.06 -1 2 C-0.67 1.34 -0.34 0.68 0 0 Z " fill="#212121" transform="translate(236,234)"/>
<path d="M0 0 C-1.65167557 3.5786304 -3.78286492 6.74820188 -6 10 C-6.66 9.34 -7.32 8.68 -8 8 C-6.78549285 4.35647855 -4.23741046 0 0 0 Z " fill="#1E1E1E" transform="translate(210,625)"/>
<path d="M0 0 C5.13623978 4.95912807 5.13623978 4.95912807 7 8 C6.67 8.99 6.34 9.98 6 11 C3.69 8.03 1.38 5.06 -1 2 C-0.67 1.34 -0.34 0.68 0 0 Z " fill="#1D1D1D" transform="translate(492,580)"/>
<path d="M0 0 C3.68006822 3.38168431 5.9785845 6.42521756 8 11 C7.01 11.495 7.01 11.495 6 12 C4.99157547 10.56839732 3.99352109 9.12948547 3 7.6875 C2.1646875 6.48673828 2.1646875 6.48673828 1.3125 5.26171875 C0 3 0 3 0 0 Z " fill="#1A1A1A" transform="translate(548,563)"/>
<path d="M0 0 C5.13623978 4.95912807 5.13623978 4.95912807 7 8 C6.67 8.99 6.34 9.98 6 11 C3.69 8.03 1.38 5.06 -1 2 C-0.67 1.34 -0.34 0.68 0 0 Z " fill="#1B1B1B" transform="translate(589,556)"/>
<path d="M0 0 C0.33 0.99 0.66 1.98 1 3 C-0.21484375 5.04296875 -0.21484375 5.04296875 -1.9375 7.1875 C-2.50339844 7.90292969 -3.06929687 8.61835937 -3.65234375 9.35546875 C-4.09707031 9.89816406 -4.54179687 10.44085937 -5 11 C-5.66 10.34 -6.32 9.68 -7 9 C-4.69 6.03 -2.38 3.06 0 0 Z " fill="#1E1E1E" transform="translate(199,555)"/>
<path d="M0 0 C0.66 0 1.32 0 2 0 C0.66511872 3.59391114 -0.96022723 6.75490696 -3 10 C-3.99 9.67 -4.98 9.34 -6 9 C-5.05016642 7.49460339 -4.08988109 5.99579653 -3.125 4.5 C-2.59132812 3.6646875 -2.05765625 2.829375 -1.5078125 1.96875 C-0.76144531 0.99421875 -0.76144531 0.99421875 0 0 Z " fill="#1B1B1B" transform="translate(252,484)"/>
<path d="M0 0 C0.33 0.99 0.66 1.98 1 3 C-0.21484375 5.04296875 -0.21484375 5.04296875 -1.9375 7.1875 C-2.50339844 7.90292969 -3.06929688 8.61835938 -3.65234375 9.35546875 C-4.09707031 9.89816406 -4.54179687 10.44085938 -5 11 C-5.66 10.34 -6.32 9.68 -7 9 C-4.69 6.03 -2.38 3.06 0 0 Z " fill="#191919" transform="translate(334,457)"/>
<path d="M0 0 C3.28788824 3.11016455 5.83735988 6.01618925 8 10 C7.01 10 6.02 10 5 10 C3.61328125 8.57421875 3.61328125 8.57421875 2.3125 6.6875 C1.87550781 6.07261719 1.43851562 5.45773437 0.98828125 4.82421875 C0 3 0 3 0 0 Z " fill="#191919" transform="translate(385,285)"/>
<path d="M0 0 C0.33 0.99 0.66 1.98 1 3 C0.00390625 4.82421875 0.00390625 4.82421875 -1.4375 6.6875 C-1.91058594 7.31011719 -2.38367188 7.93273437 -2.87109375 8.57421875 C-3.24363281 9.04472656 -3.61617188 9.51523438 -4 10 C-4.99 9.67 -5.98 9.34 -7 9 C-4.69 6.03 -2.38 3.06 0 0 Z " fill="#202020" transform="translate(462,204)"/>
<path d="M0 0 C0.66 0 1.32 0 2 0 C0.63312778 3.98671063 -1.15195093 6.88494633 -4 10 C-4.66 10 -5.32 10 -6 10 C-4.34643078 6.41726669 -2.32019297 3.19026533 0 0 Z " fill="#1D1D1D" transform="translate(470,193)"/>
<path d="M0 0 C0.66 0.66 1.32 1.32 2 2 C0.02 4.64 -1.96 7.28 -4 10 C-4.99 9.67 -5.98 9.34 -7 9 C-4.69 6.03 -2.38 3.06 0 0 Z " fill="#202020" transform="translate(480,180)"/>
<path d="M0 0 C2.96404505 2.80804268 5.44499019 5.18315774 7 9 C6.01 9.495 6.01 9.495 5 10 C3.02 7.03 1.04 4.06 -1 1 C-0.67 0.67 -0.34 0.34 0 0 Z " fill="#171717" transform="translate(254,167)"/>
<path d="M0 0 C0.66 0 1.32 0 2 0 C1.34 1.98 0.68 3.96 0 6 C-0.66 6 -1.32 6 -2 6 C-2.66 7.32 -3.32 8.64 -4 10 C-4.66 9.34 -5.32 8.68 -6 8 C-5.04956626 6.66102417 -4.08940853 5.32894573 -3.125 4 C-2.59132813 3.2575 -2.05765625 2.515 -1.5078125 1.75 C-1.01023437 1.1725 -0.51265625 0.595 0 0 Z " fill="#1D1D1D" transform="translate(497,157)"/>
<path d="M0 0 C0.66 0.66 1.32 1.32 2 2 C-0.31 4.97 -2.62 7.94 -5 11 C-5.66 10.34 -6.32 9.68 -7 9 C-4.69 6.03 -2.38 3.06 0 0 Z " fill="#1E1E1E" transform="translate(516,132)"/>
<path d="M0 0 C0.33 0.66 0.66 1.32 1 2 C-2.25 8.5 -2.25 8.5 -6 11 C-6 7.39426104 -5.18292538 6.58663434 -3 3.8125 C-2.443125 3.09707031 -1.88625 2.38164063 -1.3125 1.64453125 C-0.879375 1.10183594 -0.44625 0.55914062 0 0 Z " fill="#1C1C1C" transform="translate(232,511)"/>
<path d="M0 0 C0.66 0 1.32 0 2 0 C0.34832443 3.5786304 -1.78286492 6.74820188 -4 10 C-4.66 9.34 -5.32 8.68 -6 8 C-5.04956626 6.66102417 -4.08940853 5.32894573 -3.125 4 C-2.59132813 3.2575 -2.05765625 2.515 -1.5078125 1.75 C-1.01023437 1.1725 -0.51265625 0.595 0 0 Z " fill="#181818" transform="translate(342,446)"/>
<path d="M0 0 C5.27272727 5.09090909 5.27272727 5.09090909 7 8 C6.57421875 10.125 6.57421875 10.125 6 12 C0.44419134 4.88610478 0.44419134 4.88610478 0 0 Z " fill="#1D1D1D" transform="translate(432,347)"/>
<path d="M0 0 C0.66 0 1.32 0 2 0 C0.34832443 3.5786304 -1.78286492 6.74820188 -4 10 C-4.66 9.34 -5.32 8.68 -6 8 C-5.04956626 6.66102417 -4.08940853 5.32894573 -3.125 4 C-2.59132813 3.2575 -2.05765625 2.515 -1.5078125 1.75 C-1.01023437 1.1725 -0.51265625 0.595 0 0 Z " fill="#1B1B1B" transform="translate(542,179)"/>
<path d="M0 0 C0.66 0.66 1.32 1.32 2 2 C0.02 4.64 -1.96 7.28 -4 10 C-4.66 9.34 -5.32 8.68 -6 8 C-4.02 5.36 -2.04 2.72 0 0 Z " fill="#202020" transform="translate(174,588)"/>
<path d="M0 0 C2.96404505 2.80804268 5.44499019 5.18315774 7 9 C6.01 9.495 6.01 9.495 5 10 C3.02 7.03 1.04 4.06 -1 1 C-0.67 0.67 -0.34 0.34 0 0 Z " fill="#181818" transform="translate(401,516)"/>
<path d="M0 0 C0.33 0.99 0.66 1.98 1 3 C-0.21484375 5.04296875 -0.21484375 5.04296875 -1.9375 7.1875 C-2.50339844 7.90292969 -3.06929688 8.61835938 -3.65234375 9.35546875 C-4.09707031 9.89816406 -4.54179687 10.44085938 -5 11 C-5.33 10.01 -5.66 9.02 -6 8 C-4.78515625 5.95703125 -4.78515625 5.95703125 -3.0625 3.8125 C-2.49660156 3.09707031 -1.93070312 2.38164062 -1.34765625 1.64453125 C-0.90292969 1.10183594 -0.45820313 0.55914062 0 0 Z " fill="#1A1A1A" transform="translate(411,272)"/>
<path d="M0 0 C0.66 0 1.32 0 2 0 C0.34832443 3.5786304 -1.78286492 6.74820188 -4 10 C-4.66 9.34 -5.32 8.68 -6 8 C-5.04956626 6.66102417 -4.08940853 5.32894573 -3.125 4 C-2.59132813 3.2575 -2.05765625 2.515 -1.5078125 1.75 C-1.01023437 1.1725 -0.51265625 0.595 0 0 Z " fill="#181818" transform="translate(482,259)"/>
<path d="M0 0 C0.66 0.66 1.32 1.32 2 2 C0.02 4.64 -1.96 7.28 -4 10 C-4.66 9.34 -5.32 8.68 -6 8 C-4.02 5.36 -2.04 2.72 0 0 Z " fill="#181818" transform="translate(491,247)"/>
<path d="M0 0 C0.66 0.66 1.32 1.32 2 2 C0.02 4.64 -1.96 7.28 -4 10 C-4.66 9.34 -5.32 8.68 -6 8 C-4.02 5.36 -2.04 2.72 0 0 Z " fill="#1F1F1F" transform="translate(586,120)"/>
<path d="M0 0 C2.64752004 2.57784846 4.94432065 4.91648098 7 8 C6.01 8 5.02 8 4 8 C2.61328125 6.46875 2.61328125 6.46875 1.3125 4.5 C0.87550781 3.8503125 0.43851562 3.200625 -0.01171875 2.53125 C-0.50091797 1.77328125 -0.50091797 1.77328125 -1 1 C-0.67 0.67 -0.34 0.34 0 0 Z " fill="#171717" transform="translate(260,119)"/>
<path d="M0 0 C0.99 0 1.98 0 3 0 C4.38671875 1.75 4.38671875 1.75 5.6875 4 C6.12449219 4.7425 6.56148437 5.485 7.01171875 6.25 C7.33785156 6.8275 7.66398438 7.405 8 8 C7.01 8 6.02 8 5 8 C3.61328125 6.25 3.61328125 6.25 2.3125 4 C1.87550781 3.2575 1.43851563 2.515 0.98828125 1.75 C0.66214844 1.1725 0.33601562 0.595 0 0 Z " fill="#1D1D1D" transform="translate(555,575)"/>
<path d="M0 0 C2.96404505 2.80804268 5.44499019 5.18315774 7 9 C6.01 9.495 6.01 9.495 5 10 C3.02 7.03 1.04 4.06 -1 1 C-0.67 0.67 -0.34 0.34 0 0 Z " fill="#131313" transform="translate(384,493)"/>
<path d="M0 0 C0.66 0.33 1.32 0.66 2 1 C1.04956626 2.33897583 0.08940853 3.67105427 -0.875 5 C-1.40867187 5.7425 -1.94234375 6.485 -2.4921875 7.25 C-3.23855469 8.11625 -3.23855469 8.11625 -4 9 C-4.66 9 -5.32 9 -6 9 C-4.47291037 5.56404834 -2.40072955 2.88087546 0 0 Z " fill="#111111" transform="translate(516,214)"/>
<path d="M0 0 C2.64752004 2.57784846 4.94432065 4.91648098 7 8 C6.01 8 5.02 8 4 8 C0 3.77142857 0 3.77142857 0 0 Z " fill="#161616" transform="translate(401,458)"/>
<path d="M0 0 C2.5625 2.25 2.5625 2.25 5 5 C4.8125 7.3125 4.8125 7.3125 4 9 C4 8.34 4 7.68 4 7 C3.01 6.67 2.02 6.34 1 6 C0.67 4.02 0.34 2.04 0 0 Z " fill="#1A1A1A" transform="translate(289,306)"/>
<path d="M0 0 C3.72940389 1.24313463 4.84656811 2.76985216 7 6 C6.67 6.99 6.34 7.98 6 9 C3.59927045 6.11912454 1.52708963 3.43595166 0 0 Z " fill="#121212" transform="translate(271,191)"/>
<path d="M0 0 C2.66735273 2.48952921 4.55746343 4.63408134 6 8 C5.01 8 4.02 8 3 8 C1.02 4.535 1.02 4.535 -1 1 C-0.67 0.67 -0.34 0.34 0 0 Z " fill="#181818" transform="translate(292,370)"/>
<path d="M0 0 C0.66 0.33 1.32 0.66 2 1 C-0.97 4.96 -0.97 4.96 -4 9 C-4.33 8.01 -4.66 7.02 -5 6 C-3.59554165 3.7363436 -1.8032087 1.9791315 0 0 Z " fill="#141414" transform="translate(422,258)"/>
<path d="M0 0 C0.66 0.66 1.32 1.32 2 2 C0.35 4.31 -1.3 6.62 -3 9 C-3.66 8.34 -4.32 7.68 -5 7 C-3.35 4.69 -1.7 2.38 0 0 Z " fill="#1C1C1C" transform="translate(550,168)"/>
<path d="M0 0 C0.33 0.99 0.66 1.98 1 3 C-0.8125 5.6875 -0.8125 5.6875 -3 8 C-3.66 8 -4.32 8 -5 8 C-3.62845496 5.04590299 -2.01136276 2.55991624 0 0 Z " fill="#1F1F1F" transform="translate(149,622)"/>
<path d="M0 0 C4.875 4.625 4.875 4.625 6 8 C5.01 8.495 5.01 8.495 4 9 C0 4.5 0 4.5 0 0 Z " fill="#131313" transform="translate(472,610)"/>
<path d="M0 0 C0.66 0.66 1.32 1.32 2 2 C0.35 4.31 -1.3 6.62 -3 9 C-3.33 7.68 -3.66 6.36 -4 5 C-2.0625 2.25 -2.0625 2.25 0 0 Z " fill="#1C1C1C" transform="translate(241,499)"/>
<path d="M0 0 C3.40424844 1.13474948 4.21653709 1.96811304 6 5 C5.67 5.99 5.34 6.98 5 8 C0 2.25 0 2.25 0 0 Z " fill="#161616" transform="translate(448,370)"/>
<path d="M0 0 C0.66 0.66 1.32 1.32 2 2 C0.35 3.98 -1.3 5.96 -3 8 C-3.66 7.67 -4.32 7.34 -5 7 C-3.35 4.69 -1.7 2.38 0 0 Z " fill="#171717" transform="translate(467,279)"/>
<path d="M0 0 C2.66735273 2.48952921 4.55746343 4.63408134 6 8 C5.01 8 4.02 8 3 8 C0.19744677 5.0936485 0 4.21174952 0 0 Z " fill="#181818" transform="translate(148,178)"/>
<path d="M0 0 C0.66 0 1.32 0 2 0 C0.62845496 2.95409701 -0.98863724 5.44008376 -3 8 C-3.66 7.67 -4.32 7.34 -5 7 C-4.21654285 5.82780457 -3.42297164 4.66236332 -2.625 3.5 C-2.18414063 2.8503125 -1.74328125 2.200625 -1.2890625 1.53125 C-0.65097656 0.77328125 -0.65097656 0.77328125 0 0 Z " fill="#131313" transform="translate(595,108)"/>
<path d="M0 0 C2.66735273 2.48952921 4.55746343 4.63408134 6 8 C5.01 8.495 5.01 8.495 4 9 C0 3.375 0 3.375 0 0 Z " fill="#1A1A1A" transform="translate(465,601)"/>
<path d="M0 0 C0.33 0.99 0.66 1.98 1 3 C-0.9375 6.1875 -0.9375 6.1875 -3 9 C-3.66 8.34 -4.32 7.68 -5 7 C-3.35 4.69 -1.7 2.38 0 0 Z " fill="#171717" transform="translate(269,543)"/>
<path d="M0 0 C0.33 0.99 0.66 1.98 1 3 C-0.9375 6.1875 -0.9375 6.1875 -3 9 C-3.66 8.34 -4.32 7.68 -5 7 C-3.625 4.5 -3.625 4.5 -2 2 C-1.34 2 -0.68 2 0 2 C0 1.34 0 0.68 0 0 Z " fill="#181818" transform="translate(281,527)"/>
<path d="M0 0 C0.33 0.99 0.66 1.98 1 3 C-0.9375 6.1875 -0.9375 6.1875 -3 9 C-3.66 8.34 -4.32 7.68 -5 7 C-3.35 4.69 -1.7 2.38 0 0 Z " fill="#181818" transform="translate(293,511)"/>
<path d="M0 0 C1.65 1.65 3.3 3.3 5 5 C4.34 5.66 3.68 6.32 3 7 C0 5 0 5 -0.75 2.9375 C-0.8325 2.298125 -0.915 1.65875 -1 1 C-0.67 0.67 -0.34 0.34 0 0 Z " fill="#222222" transform="translate(507,447)"/>
<path d="M0 0 C1.65 1.65 3.3 3.3 5 5 C4.67 5.99 4.34 6.98 4 8 C2 6.25 2 6.25 0 4 C0 2.68 0 1.36 0 0 Z " fill="#151515" transform="translate(383,433)"/>
<path d="M0 0 C1.65 1.65 3.3 3.3 5 5 C4.67 5.99 4.34 6.98 4 8 C0 3.375 0 3.375 0 0 Z " fill="#1D1D1D" transform="translate(377,425)"/>
<path d="M0 0 C0.66 0.66 1.32 1.32 2 2 C1.34 3.32 0.68 4.64 0 6 C-0.66 6 -1.32 6 -2 6 C-2.33 6.66 -2.66 7.32 -3 8 C-2.45276317 4.62537285 -1.9451 2.91765 0 0 Z " fill="#181818" transform="translate(297,424)"/>
<path d="M0 0 C0.99 0 1.98 0 3 0 C5.1875 3 5.1875 3 7 6 C6.01 6 5.02 6 4 6 C1.8125 3 1.8125 3 0 0 Z " fill="#1F1F1F" transform="translate(460,387)"/>
<path d="M0 0 C0.33 1.32 0.66 2.64 1 4 C-0.4375 6.25 -0.4375 6.25 -2 8 C-2.99 7.67 -3.98 7.34 -5 7 C-3.35 4.69 -1.7 2.38 0 0 Z " fill="#1A1A1A" transform="translate(531,193)"/>
<path d="M0 0 C2.0625 1.75 2.0625 1.75 4 4 C3.75 6.25 3.75 6.25 3 8 C1.02 4.535 1.02 4.535 -1 1 C-0.67 0.67 -0.34 0.34 0 0 Z " fill="#1F1F1F" transform="translate(205,192)"/>
<path d="M0 0 C2.66735273 2.48952921 4.55746343 4.63408134 6 8 C5.01 8.495 5.01 8.495 4 9 C0 3.375 0 3.375 0 0 Z " fill="#131313" transform="translate(247,157)"/>
<path d="M0 0 C0.66 0.66 1.32 1.32 2 2 C0.6875 4.5 0.6875 4.5 -1 7 C-1.99 7 -2.98 7 -4 7 C-2.79618552 4.50638429 -1.54571278 2.31856917 0 0 Z " fill="#1D1D1D" transform="translate(522,124)"/>
<path d="M0 0 C0.66 0.66 1.32 1.32 2 2 C0.68 3.65 -0.64 5.3 -2 7 C-2.99 6.67 -3.98 6.34 -5 6 C-3.35 4.02 -1.7 2.04 0 0 Z " fill="#252525" transform="translate(528,116)"/>
</svg>
